<svg width="280" height="152" viewBox="0 0 280 152" fill="none" xmlns="http://www.w3.org/2000/svg">
<path d="M1 150.94C12.0464 151.861 26.7998 142.013 35.8345 137.571C80.2579 115.727 122.922 89.4614 164.238 62.2639C187.288 47.0905 213.376 30.3457 229.172 6.9263C235.973 -3.15633 222.096 2.26668 217.222 4.16223C203.152 9.63491 184.538 18.8384 172.129 25.9363C145.637 41.0899 112.253 59.3157 95.0758 85.8431C88.6815 95.718 87.218 103.361 97.7814 109.761C110.507 117.471 128.197 112.477 141.015 108.294C145.418 106.857 156.255 102.148 161.081 99.9454C162.564 99.2684 164.014 98.5204 165.478 97.8019C167.562 96.7788 167.485 96.6171 165.816 98.0839C154.334 108.174 141.247 120.953 135.378 135.371C130.708 146.842 157.723 143.532 162.547 143.381C173.248 143.045 183.906 141.801 194.619 141.801C195.383 141.801 181.002 135.359 180.471 135.145C156.254 125.369 131.297 118.032 105.729 112.75C102.385 112.06 72.0198 103.143 68.4144 108.971C65.195 114.176 78.4807 115.184 79.575 115.232C145.886 118.182 212.822 111.125 279 117.432" stroke="#404040" stroke-width="2" stroke-linecap="round"/>
</svg>
